<?xml version="1.0" encoding="UTF-8"?>
<svg width="80px" height="79px" viewBox="0 0 80 79" version="1.1" xmlns="http://www.w3.org/2000/svg" xmlns:xlink="http://www.w3.org/1999/xlink">
    <!-- Generator: Sketch 44.1 (41455) - http://www.bohemiancoding.com/sketch -->
    <title>Group 3</title>
    <desc>Created with Sketch.</desc>
    <defs></defs>
    <g id="Page-1" stroke="none" stroke-width="1" fill="none" fill-rule="evenodd">
        <g id="Group-3" stroke="#FFFFFF">
            <circle id="Oval" stroke-width="8" cx="40" cy="40" r="15"></circle>
            <path d="M23.3872189,4.70105625 C13.7530187,5.59694587 6.14175557,13.2611046 5.31260906,22.9012782 C4.43971976,33.0500332 4,39.3248156 4,41.4993451 C4,43.4079947 4.34186753,48.5257086 5.02138095,56.6641047 C5.88676044,67.0285815 14.5514882,75 24.9520296,75 L55.3849396,75 C66.0017502,75 74.7684706,66.7045031 75.3544528,56.1038761 C75.7842854,48.3280503 76,43.4204128 76,41.4993451 C76,39.3172159 75.7232547,33.3208761 75.1723081,23.6526387 C74.6113298,13.8083616 66.959347,5.84180806 57.1456414,4.88490099 C51.0952409,4.29494337 45.0468449,4 39,4 C33.615537,4 28.4112961,4.23386453 23.3872189,4.70105625 Z" id="Rectangle-5" stroke-width="8"></path>
            <circle id="Oval-2" fill="#FFFFFF" cx="60.5" cy="19.5" r="2.5"></circle>
        </g>
    </g>
</svg>