<?xml version="1.0" encoding="UTF-8"?>
<svg width="147px" height="39px" viewBox="0 0 147 39" version="1.1" xmlns="http://www.w3.org/2000/svg" xmlns:xlink="http://www.w3.org/1999/xlink">
    <!-- Generator: Sketch 50.2 (55047) - http://www.bohemiancoding.com/sketch -->
    <title>Accenture</title>
    <desc>Created with Sketch.</desc>
    <defs>
        <polygon id="path-1" points="8.97055583e-05 0.0823909652 146.385118 0.0823909652 146.385118 22.4618257 8.97055583e-05 22.4618257"></polygon>
    </defs>
    <g id="Welcome" stroke="none" stroke-width="1" fill="none" fill-rule="evenodd">
        <g id="Desktop-HD" transform="translate(-50.000000, -15.000000)">
            <g id="Accenture" transform="translate(50.000000, 15.000000)">
                <polygon id="Fill-1" fill="#FFFFFF" points="85.3199432 -0.000359393523 85.3199432 4.36627192 93.7477804 7.66460598 85.3199432 10.8021114 85.3199432 15.2972259 99.7526705 9.44270543 99.7526705 5.8209172"></polygon>
                <g id="Group-4" transform="translate(0.000000, 16.185467)">
                    <mask id="mask-2" fill="white">
                        <use xlink:href="#path-1"></use>
                    </mask>
                    <g id="Clip-3"></g>
                    <path d="M135.470733,11.6925987 L141.800357,11.6925987 C141.702578,9.20290011 140.572288,8.13550134 138.700133,8.13550134 C137.214609,8.13550134 135.859158,8.94323829 135.470733,11.6925987 Z M138.829309,22.4618257 C133.953812,22.4618257 130.628427,19.5516366 130.628427,13.9244325 L130.628427,13.6009783 C130.628427,7.94142884 134.147576,4.8362688 138.667839,4.8362688 C142.865162,4.8362688 146.385208,7.19748425 146.385208,12.7923429 L146.385208,14.8301042 L135.407042,14.8301042 C135.600806,17.8696749 136.891669,19.0341099 138.926191,19.0341099 C140.733758,19.0341099 141.702578,18.0646459 142.026415,16.8355201 L146.385208,16.8355201 C145.868504,20.0368179 143.253587,22.4618257 138.829309,22.4618257 Z M119.356923,5.19296687 L124.07095,5.19296687 L124.07095,8.29722843 C125.072064,6.03304923 126.65447,4.96654895 129.140211,4.96654895 L129.140211,9.62249204 C125.944002,9.62249204 124.07095,10.5928546 124.07095,13.4069058 L124.07095,22.1069246 L119.356923,22.1069246 L119.356923,5.19296687 Z M115.932862,22.1069246 L111.217938,22.1069246 L111.217938,19.6163274 C110.411485,21.2335983 108.829079,22.4618257 106.30925,22.4618257 C103.274511,22.4618257 101.046225,20.6199339 101.046225,16.6414476 L101.046225,5.19296687 L105.793443,5.19296687 L105.793443,15.9298484 C105.793443,17.8696749 106.567602,18.7753466 108.24689,18.7753466 C109.893884,18.7753466 111.217938,17.7402933 111.217938,15.6396381 L111.217938,5.19296687 L115.932862,5.19296687 L115.932862,22.1069246 Z M94.9417614,0.0823909652 L94.9417614,5.19296687 L98.1711615,5.19296687 L98.1711615,8.71771885 L94.9417614,8.71771885 L94.9417614,16.7375853 C94.9417614,18.0008536 95.5230534,18.5812741 96.6210495,18.5812741 C97.2992235,18.5812741 97.8159275,18.4860348 98.2671465,18.2910638 L98.2671465,21.9775429 C97.7190455,22.13927 96.7825195,22.3333425 95.6199354,22.3333425 C91.9393164,22.3333425 90.1954403,20.6513808 90.1954403,17.2227666 L90.1954403,8.71771885 L88.2255063,8.71771885 L88.2255063,5.19296687 L90.1954403,5.19296687 L90.1954403,2.02221751 L94.9417614,0.0823909652 Z M71.2065678,5.19296687 L75.9205949,5.19296687 L75.9205949,7.71501092 C76.7611359,6.13008548 78.4395269,4.8362688 81.023047,4.8362688 C84.0909771,4.8362688 86.1246021,6.67995757 86.1246021,10.7869271 L86.1246021,22.1069246 L81.409678,22.1069246 L81.409678,11.4985262 C81.409678,9.52635428 80.603225,8.65212953 78.8916429,8.65212953 C77.2455459,8.65212953 75.9205949,9.65483746 75.9205949,11.789635 L75.9205949,22.1069246 L71.2065678,22.1069246 L71.2065678,5.19296687 Z M57.3847353,11.6925987 L63.7143595,11.6925987 C63.6165805,9.20290011 62.4871875,8.13550134 60.6141354,8.13550134 C59.1295085,8.13550134 57.7731604,8.94323829 57.3847353,11.6925987 Z M60.7433114,22.4618257 C55.8678144,22.4618257 52.5424293,19.5516366 52.5424293,13.9244325 L52.5424293,13.6009783 C52.5424293,7.94142884 56.0615784,4.8362688 60.5818414,4.8362688 C64.7791645,4.8362688 68.2992106,7.19748425 68.2992106,12.7923429 L68.2992106,14.8301042 L57.3210444,14.8301042 C57.5148084,17.8696749 58.8056714,19.0341099 60.8401934,19.0341099 C62.6477604,19.0341099 63.6165805,18.0646459 63.9404175,16.8355201 L68.2992106,16.8355201 C67.7825066,20.0368179 65.1675896,22.4618257 60.7433114,22.4618257 Z M43.0461989,22.4618257 C38.3644658,22.4618257 34.9744928,19.5516366 34.9744928,13.8273963 L34.9744928,13.6009783 C34.9744928,7.876738 38.5905238,4.8362688 43.0784929,4.8362688 C46.920582,4.8362688 50.0853941,6.77699382 50.4729221,11.2074175 L45.952659,11.2074175 C45.662013,9.55869969 44.822369,8.49130093 43.1753749,8.49130093 C41.1731468,8.49130093 39.7854019,10.0753279 39.7854019,13.4069058 L39.7854019,13.9244325 C39.7854019,17.3530467 41.0116768,18.9047283 43.208566,18.9047283 C44.822369,18.9047283 46.0163499,17.7079478 46.2747019,15.8642591 L50.5707011,15.8642591 C50.2468641,19.7133637 47.63105,22.4618257 43.0461989,22.4618257 Z M25.4782624,22.4618257 C20.7965293,22.4618257 17.4065562,19.5516366 17.4065562,13.8273963 L17.4065562,13.6009783 C17.4065562,7.876738 21.0225873,4.8362688 25.5105564,4.8362688 C29.3526454,4.8362688 32.5183546,6.77699382 32.9049855,11.2074175 L28.3847225,11.2074175 C28.0940764,9.55869969 27.2544324,8.49130093 25.6074384,8.49130093 C23.6052103,8.49130093 22.2174653,10.0753279 22.2174653,13.4069058 L22.2174653,13.9244325 C22.2174653,17.3530467 23.4437403,18.9047283 25.6406294,18.9047283 C27.2544324,18.9047283 28.4484134,17.7079478 28.7067654,15.8642591 L33.0027646,15.8642591 C32.6789275,19.7133637 30.0631135,22.4618257 25.4782624,22.4618257 Z M10.0740239,16.478822 L10.0740239,14.8624496 L8.20097184,14.8624496 C5.87580377,14.8624496 4.68182279,15.509358 4.68182279,17.0286941 L4.68182279,17.1904212 C4.68182279,18.3548562 5.39229081,19.1634916 6.97469686,19.1634916 C8.58939691,19.1634916 10.0740239,18.2587184 10.0740239,16.478822 Z M5.55376082,22.4618257 C2.51812473,22.4618257 8.97055583e-05,20.9101441 8.97055583e-05,17.4815299 L8.97055583e-05,17.2892544 C8.97055583e-05,13.1157971 3.61612076,11.7572896 7.97491384,11.7572896 L10.0740239,11.7572896 L10.0740239,10.9495526 C10.0740239,9.26759094 9.33126188,8.23163911 7.58738583,8.23163911 C6.00587683,8.23163911 5.16623281,9.13731079 5.0370568,10.432026 L0.516793721,10.432026 C0.838836676,6.67995757 3.80988477,4.8362688 7.81344383,4.8362688 C11.882488,4.8362688 14.788948,6.5838198 14.788948,10.7869271 L14.788948,22.1069246 L10.1709059,22.1069246 L10.1709059,20.1661995 C9.36355588,21.3953254 7.81344383,22.4618257 5.55376082,22.4618257 Z" id="Fill-2" fill="#FFFFFF" mask="url(#mask-2)"></path>
                </g>
            </g>
        </g>
    </g>
</svg>