<?xml version="1.0" standalone="no"?>
<!DOCTYPE svg PUBLIC "-//W3C//DTD SVG 20010904//EN"
 "http://www.w3.org/TR/2001/REC-SVG-20010904/DTD/svg10.dtd">
<svg version="1.0" xmlns="http://www.w3.org/2000/svg"
 width="288.000000pt" height="288.000000pt" viewBox="0 0 288.000000 288.000000"
 preserveAspectRatio="xMidYMid meet">
<metadata>
Created by potrace 1.11, written by Peter Selinger 2001-2013
</metadata>
<g transform="translate(0.000000,288.000000) scale(0.100000,-0.100000)"
fill="#000000" stroke="none">
<path d="M1235 2865 c-318 -48 -584 -183 -810 -410 -206 -206 -323 -418 -391
-711 -24 -105 -28 -140 -28 -294 0 -107 5 -202 13 -245 15 -80 55 -231 73
-272 87 -209 183 -358 322 -498 228 -229 452 -347 789 -416 79 -17 339 -19
438 -4 296 45 560 169 772 365 227 210 371 466 439 777 29 133 33 378 8 513
-58 323 -198 592 -417 800 -221 212 -445 326 -766 391 -76 16 -349 18 -442 4z"/>
</g>
</svg>
