<?xml version="1.0" standalone="no"?>
<!DOCTYPE svg PUBLIC "-//W3C//DTD SVG 20010904//EN"
 "http://www.w3.org/TR/2001/REC-SVG-20010904/DTD/svg10.dtd">
<svg version="1.0" xmlns="http://www.w3.org/2000/svg"
 width="127.000000pt" height="127.000000pt" viewBox="0 0 127.000000 127.000000"
 preserveAspectRatio="xMidYMid meet">
<metadata>
Created by potrace 1.11, written by Peter Selinger 2001-2013
</metadata>
<g transform="translate(0.000000,127.000000) scale(0.100000,-0.100000)"
fill="#000000" stroke="none">
<path d="M909 1046 c-138 -29 -218 -149 -185 -277 25 -95 63 -128 221 -193
113 -47 155 -79 155 -119 0 -88 -131 -112 -248 -46 l-55 31 -54 -54 -54 -53
23 -19 c13 -10 52 -33 88 -50 56 -26 79 -31 163 -34 112 -5 165 10 224 61 50
44 73 96 73 163 0 118 -59 182 -227 249 -140 55 -179 96 -149 154 30 57 118
68 205 25 l53 -27 49 49 c27 26 49 51 49 55 0 13 -77 58 -125 73 -72 21 -142
25 -206 12z"/>
<path d="M0 640 l0 -400 75 0 75 0 0 170 c0 94 4 170 9 170 5 0 78 -76 162
-170 l153 -170 99 0 c93 0 98 1 86 17 -8 10 -90 100 -182 201 -92 102 -167
188 -165 192 2 5 69 80 150 168 81 88 159 174 173 191 l27 31 -90 0 -89 0
-159 -172 c-86 -95 -161 -174 -166 -176 -4 -2 -8 75 -8 172 l0 176 -75 0 -75
0 0 -400z"/>
</g>
</svg>
