<?xml version="1.0" standalone="no"?>
<!DOCTYPE svg PUBLIC "-//W3C//DTD SVG 20010904//EN"
 "http://www.w3.org/TR/2001/REC-SVG-20010904/DTD/svg10.dtd">
<svg version="1.0" xmlns="http://www.w3.org/2000/svg"
 width="288.000000pt" height="288.000000pt" viewBox="0 0 288.000000 288.000000"
 preserveAspectRatio="xMidYMid meet">
<metadata>
Created by potrace 1.11, written by Peter Selinger 2001-2013
</metadata>
<g transform="translate(0.000000,288.000000) scale(0.100000,-0.100000)"
fill="#000000" stroke="none">
<path d="M1255 2869 c-317 -43 -601 -184 -830 -414 -210 -209 -343 -459 -402
-752 -24 -122 -24 -404 0 -526 59 -293 192 -543 402 -752 209 -210 459 -343
752 -402 122 -24 404 -24 526 0 524 105 943 474 1107 975 51 158 64 249 64
442 0 193 -13 284 -64 442 -73 222 -186 405 -355 573 -208 209 -461 344 -747
400 -99 20 -355 28 -453 14z m977 -868 c32 -12 85 -41 119 -63 l61 -41 -82
-82 -82 -82 -49 32 c-47 32 -121 55 -177 55 -88 0 -162 -59 -162 -130 0 -73
57 -115 262 -194 231 -89 329 -207 316 -385 -10 -140 -109 -256 -256 -301
-120 -37 -308 -23 -436 34 -59 26 -156 91 -156 105 0 11 140 161 151 161 5 0
33 -15 62 -34 71 -47 153 -69 238 -64 58 3 74 8 105 34 66 53 65 129 -1 180
-18 14 -101 54 -185 89 -160 67 -213 98 -260 152 -52 59 -73 111 -78 194 -10
164 75 287 236 345 60 22 79 24 192 21 99 -3 137 -9 182 -26z m-1460 -258 l3
-266 244 266 244 267 134 0 c74 0 133 -4 131 -8 -1 -4 -120 -135 -263 -291
-143 -155 -260 -286 -260 -291 0 -4 112 -130 249 -280 137 -150 260 -286 274
-301 l24 -29 -150 0 -150 0 -239 264 -238 265 -3 -265 -2 -264 -115 0 -115 0
0 600 0 600 115 0 115 0 2 -267z"/>
</g>
</svg>
