<svg xmlns="http://www.w3.org/2000/svg" viewBox="0 0 279.72 128.97"><defs><style>.cls-1{fill:#fff;}</style></defs><title>kitAsset 3kit</title><g id="Layer_2" data-name="Layer 2"><g id="Draw_Layer" data-name="Draw Layer"><path class="cls-1" d="M67.83,56.72l-1.42.62a27,27,0,0,0-4,3,51.19,51.19,0,0,0-4.54,4.54c-1.37,1.58-3,3.41-3.64,5.46-2.7,8.62-5.42,17.24-7.92,25.92-2.13,7.42-4.35,14.84-6.2,22.34-.17.73.11,1,.84.83l1.29-.57a24.3,24.3,0,0,0,3.71-2.76A46.66,46.66,0,0,0,50.07,112c1.22-1.41,2.79-3.13,3.33-5C58.17,90.41,63.5,74,68.74,57.62q.23-1-.51-1a1.55,1.55,0,0,0-.4.06Z"/><path class="cls-1" d="M118.46.05l-1.39.62a26.18,26.18,0,0,0-4,3,48.35,48.35,0,0,0-4.47,4.47l-1.74,2.14A10.91,10.91,0,0,0,105,13.47c-.52,2.28-1,4.57-1.52,6.86a66.33,66.33,0,0,1-2.1,6.87c-1.63,4.78-3.57,9.45-5.6,14.08q-4,8.89-8.55,17.48C84.19,64.52,81,70.22,77.4,75.69c-1.79,2.62-3.68,5.16-5.65,7.65Q69,86.61,66.16,89.75c-1.68,1.76-3.4,3.47-5.15,5.15-.69.64-1.39,1.26-2.09,1.88-1.11-.41-2.23-.78-3.37-1.09-7.25-2-14.69-.92-21.8,1.11a57,57,0,0,0-20.84,11.61A58,58,0,0,0,3.07,119.1a22.24,22.24,0,0,0-2.84,5.28,3.74,3.74,0,0,0,1.2,4.21,3.77,3.77,0,0,0,2,.38c.8,0,1.59,0,2.39-.06a29,29,0,0,0,5.3-.91,74,74,0,0,0,11.77-4c3.5-1.43,6.92-3.08,10.27-4.81a108.05,108.05,0,0,0,10.71-6.52c1.9-1.28,3.76-2.62,5.6-4,1.18.59,2.32,1.25,3.43,1.9a27.59,27.59,0,0,1,9.26,8,2,2,0,0,0,1.94-.47,25.15,25.15,0,0,0,5.55-4.52,37.69,37.69,0,0,0,3.44-3.92c.26-.37,2.27-2.77,1.55-3.56a31.23,31.23,0,0,0-7.87-5.65c-1.53-.88-3.1-1.71-4.71-2.45A199.72,199.72,0,0,0,80.7,77.82,158.74,158.74,0,0,0,92.88,60.15q5.67-9.33,10.61-19.08c3.25-6.39,6.24-12.92,9-19.52q2.06-4.86,3.77-9.84c1.23-3.52,2.13-7.15,3.06-10.76.15-.63,0-.95-.5-.95a2,2,0,0,0-.39.05ZM28.86,106.93A37.68,37.68,0,0,1,40,106a38.08,38.08,0,0,1,5.2,1.08A107.88,107.88,0,0,1,33,113.51a81.47,81.47,0,0,1-9.47,3.39,27,27,0,0,1-9.43,1.25,4.2,4.2,0,0,1-1.7-.55,3,3,0,0,1-1-1.71,5.44,5.44,0,0,1,.3-1.74l.15-.27.64-.46a54.18,54.18,0,0,1,5.92-3.27,60.94,60.94,0,0,1,10.39-3.22ZM12.71,113l-.49.46.49-.46Z"/><path class="cls-1" d="M94.27,106.66a6.15,6.15,0,0,0-1.83,1,23.44,23.44,0,0,0-3.74,3.51A16,16,0,0,0,87,113.46c-.11.26-.23.52-.35.79-.1.44.07.61.51.5a6.23,6.23,0,0,0,1.82-1,23,23,0,0,0,3.74-3.51A15.31,15.31,0,0,0,94.43,108c.11-.26.23-.52.35-.78s0-.54-.29-.54l-.22,0Z"/><path class="cls-1" d="M163,40.2c-1.76,0-3.51.12-5.27.22a22.41,22.41,0,0,0-6.22,1.26,38.43,38.43,0,0,0-11.54,6.64c-1.69,1.37-3.36,2.77-5,4.18A57.27,57.27,0,0,0,130,57.35a26.6,26.6,0,0,0-2.15,2.59c-.55.74-1.07,1.51-1.57,2.3a16.47,16.47,0,0,0-1.06,2.58,8.85,8.85,0,0,0-.1,3.12,17.92,17.92,0,0,0,1.33,5.38,23.49,23.49,0,0,0,2.57,4.24c.83,1.18,1.65,2.37,2.49,3.53l2.75,3.82,2.76,3.82c.79,1.1,1.63,2.17,2.43,3.26a10.87,10.87,0,0,1,1.9,4.87c0,.31,0,.62,0,.93a47.61,47.61,0,0,0-10.56,2.87,45,45,0,0,0-18,14.27,16.2,16.2,0,0,0-1.91,3.48q.06.61.15,1.23l.53,1.07.73.08a73.19,73.19,0,0,0,12.35-3.9c2.09-.83,4.16-1.71,6.15-2.74a53,53,0,0,0,5.93-3.76c.4-.27.8-.56,1.19-.86,1.34-.13,2.68-.23,4-.33,4.87-.36,9.78-.36,14.68-.42,5.92-.08,11.84-.1,17.77-.1,10.84,0,21.69.2,32.53.42q12.94.25,25.87.48,6.87.11,13.74.26c4.7.11,9.42.21,14.1.65a20.6,20.6,0,0,1,2.06.35,6.13,6.13,0,0,1,2.31,1.08,2.38,2.38,0,0,0,2.27-.55,28.83,28.83,0,0,0,6.47-5.28,42.64,42.64,0,0,0,4-4.58c.43-.64.85-1.26,1.27-1.9a2.33,2.33,0,0,0,.54-2.26,42.48,42.48,0,0,0-9.63-.13c-1.73.1-3.47.13-5.2.2-2.67.1-5.34.14-8,.19-5.76.11-11.53.11-17.29.13-10.39,0-20.78-.3-31.15-.5q-16.66-.33-33.32-.55c-7.68-.1-15.41-.31-23.07.07l-1.82.1A28.74,28.74,0,0,0,153.35,91a14.62,14.62,0,0,0-1.22-11.65c-.71-1.17-1.55-2.26-2.3-3.41l-3.12-4.78c-.86-1.32-1.74-2.64-2.58-4-1-1.68-2.18-3.3-3.18-5a16.88,16.88,0,0,1-2-6v0a22.75,22.75,0,0,1,4.2-1,61.29,61.29,0,0,1,7.05-.33,11.06,11.06,0,0,0,3.3-1.88,41.54,41.54,0,0,0,6.76-6.36,26.23,26.23,0,0,0,3-4.07c.21-.47.43-.94.63-1.42q.23-1-.51-1a1.51,1.51,0,0,0-.4.05ZM124.3,106.39l-.12.22a1.64,1.64,0,0,1,.12-.22Z"/></g></g></svg>